<svg xmlns="http://www.w3.org/2000/svg" width="444.635" height="267.747" viewBox="0 0 444.635 267.747">
  <g id="Group_18" data-name="Group 18" transform="translate(-67.184 -110.187)">
    <g id="Group_14" data-name="Group 14" transform="translate(360.877 269.267)">
      <path id="Path_129" data-name="Path 129" d="M541.092,362.378c-8.784,4.481-17.4,9.266-26.28,13.5-4.988-1.955-8.458-8.011-7.523-13.987.594-2.256,1.475-3.554,3.276-4.115,9.486-2.956,19.569-6.091,28.95-9.286Z" transform="translate(-507.137 -348.49)"/>
      <path id="Path_130" data-name="Path 130" d="M542.223,361.613c-8.68,3.884-17.517,8.021-25.812,12.254a10.366,10.366,0,0,1-3.085-3.166c-1.459-2.609-2.772-7.032-.944-9.692,9.253-2.923,19.529-6.521,28.7-9.883Z" transform="translate(-508.584 -349.367)" fill="#fc983e"/>
    </g>
    <path id="Path_131" data-name="Path 131" d="M165.9,313.744c16.823.067,32.536,3.326,48.558,7.732,6.408,1.869,13.328,3.429,18.624,7.077,2.738,2.269,4.272,5.674,3.338,8.945a5.079,5.079,0,0,1-2.737,2.537c-6.075,1.536-10.591-2.3-15.364-3.868a29.534,29.534,0,0,0-5.263-1.873c-3.806-1.116-8.089-2.342-12.216-3.338-10.623-2.562-20.023-4.685-30.754-5.453-5.58-.4-9.666-.5-15.645-.4h-.9c5.572,9.844,11.563,20,17.637,28.876l-.782.473c-24.566,13.351-51.135,24.3-80.574,23.431-7.21-.534-14.085-2.537-20.494-4.473-.993-.34-2.147-.8-2.147-.8a80.814,80.814,0,0,1,71.172-29.506l7.907,1.186c-1.413-2.776-2.423-5.48-3.9-8.529-1.809-3.872-3.6-7.679-5.741-11.749-14.553,1.6-29.973-6.409-37.65-19.492-7.944-15.955-2.87-36.249,8.812-48.532,18.892-20.16,44.86-27.1,72.229-24.366l7.076-4.339c11.015-22.964,34.579-35.781,55.874-46.462a80.293,80.293,0,0,0-13.618-1.135,354.866,354.866,0,0,1-56.809,24.5c-1.239.577-5.007,9.146-9.479,12.016-5.007,2.2-12.016,3.471-16.822.8a46.99,46.99,0,0,1-8.678-4.605c-10.28,3.137-23.477,1.306-30.574-5.942-1.469-2.136-3.2-4.139-2.737-7.075a8.815,8.815,0,0,1,5.14-6.676,16.176,16.176,0,0,1,3.2-.668c0-5.007,3.854-10.807,8.678-11.348,5.5-.5,10.28,2.87,15.02,5.407.868-6.075.921-13.748,7.677-16.155,3.338-1,6.943.133,9.613,2.069,3.646,4.778-.467,10.681-.935,15.688,3.738.267,7.343-2.6,10.881,0a56.417,56.417,0,0,1,7.543,6.408,37.238,37.238,0,0,1,5.14-3c16.088-9.012,31.576-18.157,47.73-27.9a320.732,320.732,0,0,0,42.257,3.872c7.543.668,13.818.868,21.362-.8a10.142,10.142,0,0,1,7.343,1.4,44.806,44.806,0,0,0,9.145-10.881c-5.007-5.34-14.676-9.014-14.619-16.355.4-4.539,5.1-7.857,8.768-10.194-4.153-1.443-9.517-4.5-9.171-9.287a11.37,11.37,0,0,1,7.012-9.024c4.657-2.105,11.816-3.2,15.02,2.069a12.5,12.5,0,0,1,1,4.473c3.137-.8,8.344-1,10.548,2.27,1.335,3.4-1.023,6.367-2.492,9.037a22.6,22.6,0,0,1,2.692,1.243c2.27-5.007,6.542-10.814,12.617-10.948a7.44,7.44,0,0,1,5.474,1.6c2.2,2.136,2.75,4.989,3.2,7.744,2.537-2.2,5.674-3.872,9.146-2.937,3.405,1.8,3.2,5.808,3.338,9.012.067,3.338-1.516,6.57-2.737,8.945,11.682,5.874,23.765,11.615,34.112,20.027,2.937,3.2,7.411,6.676,5.607,11.682-.533,1.936-2.737,3-4.139,3.872-.868,4.74-3.292,10.04-8.678,11.682-4.052,1.236-8.945,2.337-13.284,1-7.076,6.009-17.934,11.252-24.832,9.413a7.627,7.627,0,0,1-4.607-4.139,23.084,23.084,0,0,1-.2-10.881c-3.738-7.009-9.746-12.951-15.688-18.291-6.208,2.069-12.283,4.473-17.623,8.678,9.079,15.421,15.821,32.109,26.3,46.729l5.741,8.678a487.511,487.511,0,0,0,52.4,21.762c5.808-3.6,11.816-7.41,19.025-7.209,3.872.133,6.208,3.738,8.344,6.608,2.87-1.4,5.607-.6,8.211,1.135a9.062,9.062,0,0,1,2.85,9.21,11.238,11.238,0,0,1-1.517,3.568,2.2,2.2,0,0,1,1.9,1.442c1.967,5.187,3.719,12.829-1.628,16.821-3.538,1.6-9.279,1.8-12.684-.134-3.224,1.987-10.663.241-10.663.241-2.961,1.442-8.563,5.033-11.9,3.764-7.276-1.869-12.549-9.278-13.952-16.355a43.325,43.325,0,0,1-.2-9.278L337.22,254.054l-8.211-2.069c-12.617-19.292-25.167-37.517-39.252-54.806-13.151,7.81-26.769,15.154-41.655,19.226-.868.133-.467,1.067-.8,1.6-5.607,5.742-9.145,12.718-13.884,19.059l-.335.634a369.545,369.545,0,0,0,63.284,33.311c-.6,2.509-1.463,4.528-2.136,7.21-4.613,18.39-9.547,37.985-10.681,57.81,7.075-1,14.886-3.071,21.762-3.2,20.027-1.2,39.252,5.34,53.672,18.959a26.981,26.981,0,0,1,4.386,6.178s-10.728,4.96-16.269,6.306c-28.916,7.025-58.478,1.268-86.515-5.274a577.923,577.923,0,0,0,16.021-82.843A341.314,341.314,0,0,0,242.5,263.333c-17.09-5.741-35.581-8.544-54.139-9.613-18.558,8.611-37.25,16.822-54.272,29.172,4.005,10.414,9.419,20.257,14.025,30.137l.395.571S160.627,313.654,165.9,313.744ZM160.786,242.5c-8.678,1.135-16.222,2.336-24.165,5.942l-.048.039c-16.689,6.142-29.792,22.123-29.591,40.147,1.469,11.148,12.617,19.96,22.9,22.43a289,289,0,0,0-15.354-28.171l-.793-1.644c15.02-14.487,33.3-26.593,49.658-38.609Z" transform="translate(0 0)" fill="#e0007a"/>
    <path id="Path_132" data-name="Path 132" d="M479.135,149.109c3.338,1.335,6.852,2.438,10.057,4.04l1.135-2.6c1.2-4.072,2.136-8.812-1.469-12.016-2.537-1-5.562.344-7.565,2.148C481.423,144.419,479.135,149.109,479.135,149.109Z" transform="translate(-136.951 -9.309)" fill="#fe0"/>
    <path id="Path_133" data-name="Path 133" d="M430.762,167.815c-5.541,2.8-11.011,4.894-15.684,9.5-1.869-1.936-3.407-4.708-5.543-6.443l.269-.3c3.806-3.338,7.944-6.409,10.08-11.015-3.738-4.74-9.479-9.012-12.616-14.953-2-5.808,4.872-8.745,8.011-12.016-3.939-2.27-9.48-3.271-11.082-8.478-.133-2.537,2.07-4.606,4.339-5.941,3.071-1.6,8.21-2.555,11.082-.467l1.067,1.268c1.251,1.893-.935,6.409-2.069,9.346,4.605,3.137,10.28,4.473,15.42,6.676-.868,4.339-1,10.08,2.67,13.151,2.2,2.2,5.625,2.368,8.545,1.6,4.652-1.22,8.216-6.49,8.216-6.49a191.06,191.06,0,0,1,21.691,20.575c-4.539,1.736-9.412,3.805-13.284,7.744-3.6-1.8-4.74-5.741-5.274-9.346a7.334,7.334,0,0,0,4.473-3.2,1.854,1.854,0,0,0,.433-1.707,20.7,20.7,0,0,1-15.653,3.643c-.2,1,.877,1.416,1.8,1.6a16.578,16.578,0,0,0,6.074.467c.668,4.005,3.2,8.611,7.21,9.813a50.26,50.26,0,0,0-9.479,11.549c-4.138-6.742-11.282-12.884-18.091-16.555-1.453-.944-3.934-2.444-3.934-2.444A9.912,9.912,0,0,0,430.762,167.815Z" transform="translate(-112.037 -2.1)" fill="#eb85b5"/>
    <path id="Path_134" data-name="Path 134" d="M418.471,124.483a11.512,11.512,0,0,1-1.134,7.21c-1.937-.2-3.605-1.869-4.607-3.672a3.789,3.789,0,0,1,.8-4.206C414.8,122.327,417.937,122.548,418.471,124.483Z" transform="translate(-114.762 -4.208)" fill="#e0007a"/>
    <path id="Path_135" data-name="Path 135" d="M429.7,130.931l8.812,3a7.738,7.738,0,0,0,1.869-5.741c-.331-2.652-3.957-3.035-6.208-2.737-.641.085-1.563.142-1.563.142C432.321,127.388,429.7,130.931,429.7,130.931Z" transform="translate(-120.517 -5.048)" fill="#eb85b5"/>
    <path id="Path_136" data-name="Path 136" d="M467,130.546c2.937,3.271,3.115,8.233,1.806,12.709a13.541,13.541,0,0,1-7.414,8.453c-2.4.668-5.206.868-7.209-1a10.5,10.5,0,0,1-2.871-10.414c1.268-4.673,5.208-10.347,10.414-11.215A6.886,6.886,0,0,1,467,130.546Z" transform="translate(-127.581 -6.265)" fill="#fe0"/>
    <path id="Path_137" data-name="Path 137" d="M518.875,178.824c-4.406-1.6-9.279-2.47-14.085-1.135-5.674-5.741-11.549-11.682-17.29-16.689C498.248,166.274,508.862,171.881,518.875,178.824Z" transform="translate(-139.732 -16.893)" fill="#e65a9c"/>
    <path id="Path_138" data-name="Path 138" d="M535.928,193.581c1.935,1.936,4.472,4.005,4.005,6.876-.935,3.138-3.7,3.374-6.373,3.626a38.793,38.793,0,0,1-8.941,0c-2.471-4.874-6.583-10.9-9.52-15.642,2.471-.668,5.541-.134,8.145.2C527.65,189.376,532.637,191.105,535.928,193.581Z" transform="translate(-148.908 -25.909)" fill="#e0007a"/>
    <path id="Path_139" data-name="Path 139" d="M505.857,190.3c3.6,4.94,6.275,10.547,9.613,15.688-.668,4.005-3.247,7.937-6.117,10.874-3.806-.134-7.9-.594-10.238-3.8-3.939-4.473-6.609-9.88-5.874-15.888A38.206,38.206,0,0,1,505.857,190.3Z" transform="translate(-141.6 -26.633)" fill="#f8d7e7"/>
    <path id="Path_140" data-name="Path 140" d="M169.671,215.177c4.268,4.672,13.67,1.269,16.991,3.455,2.871,1.736,5.541,4.206,8.344,5.808a404.03,404.03,0,0,0,54.806-29.84c13.151,1.869,28.171,3.538,42.456,4.206-6.542,2.4-13.15,4.606-19.426,7.677-9.346-2.4-22.619-1.033-31.764,1.369,0,0,2.949.037,4.845.115a349.634,349.634,0,0,1-44.843,19.677c-3.147,1.318-6.676,1.869-8.611,5.274-1.869,2.67-2.937,5.941-5.607,8.011-11.415,6.275-22.563-.467-31.709-7.21-1.068-1-2.336-2.2-2.4-3.672.734-3.6,3.471-7.21,7.343-7.877,2.537.334,4.339,3.071,5.607,4.806,1.669,3.138,3.805,6.008,4.94,9.279a24.888,24.888,0,0,0,.2-5.274c1.4-2.2,3.676-4.326,5.607-4.339a29.162,29.162,0,0,1,9.746,2.27s-5.125-4.623-9.775-4.621c-2.657,0-4.911,2.352-6.58,4.621-1.869-3.672-4.272-7.677-7.81-10.08-4.473-.467-8.278,2.336-10.748,6.075-3.805-1-7.343-2.67-11.081-4.005a15.349,15.349,0,0,1,1.469-5.474c6.2-8.787,15.52,2.67,23.331,2.4-.866-.634-1.7-1.2-2.37-1.735.067-5.541,1.068-12.016,6.609-14.419,2.47-.6,5.007-.534,6.542,1.736,1.068,4.139-.467,8.344-1.135,12.35A41.982,41.982,0,0,1,169.671,215.177Z" transform="translate(-24.274 -28.063)" fill="#eb85b5"/>
    <path id="Path_141" data-name="Path 141" d="M97.337,389.853c-5.074,2.8-11.353,7.158-14.958,12.1l-5.864-1.715.391-.354c16.355-17.356,39.653-25.567,63.751-23.565,5.407.668,12.417,2,19.092,1.936a20.245,20.245,0,0,0-7.212-2.82s-1.384-3.46-2.267-5.525c-8.274-20.41-18.491-38.985-29.105-58.144,24.3-21.094,51.306-40.5,78.209-57.458l2.423-1.5c-3,.173-6.6,2.348-8.068,2.882,16.889-27.837,47.663-39.252,75.434-50.467,5.541-1.6,10.387-3.635,16.789-4.615,7.383-1.673,11.115.944,11.115.944,7.143,6.075,10.147,14.753,15.22,22.1,8.278,15.02,16.622,30.107,27.37,43.925,2.6,2.07,4.673,4.406,7.21,6.542.467-1.8-1.869-3.271-2.4-5.073,17.891,7.343,36.469,14.751,55.36,19.691a12.859,12.859,0,0,0-4.426-3.2c5.207-2.737,11.416-6.943,17.623-3.537,3.271,1.735,5.073,5.874,9.146,4.673,2.858-.742,5.874,1.8,6.408,4.939.2,2.47-.8,4.539-1.735,6.542l-2.8-.078c-3.567-6.832-7.947-9.2-7.947-9.2A50.036,50.036,0,0,1,424.7,305.89a12.935,12.935,0,0,0,.019-5.924l3.519-.818c-.042-.268,3.009,8.788,0,13.151-1.8,2.136-4.886,2.546-7.677,2.07-4.648-1.119-6.609-4.206-9.613-7.077a36.023,36.023,0,0,0,2.871,6.275c-.716,1.885-9.521-.393-13.953-1.6a33.131,33.131,0,0,0,4.206,2.87,13.387,13.387,0,0,1-9.145,2.27c-7.142-3.471-11.749-11.015-12.951-18.424l-.146-3.649a24.34,24.34,0,0,0,6.224-.607c-17.535-6.3-35.718-10.965-54.142-15.971l-3.071-5.407c-14.286-21.228-30.173-42.39-48.4-61.215a25.017,25.017,0,0,0,2.87,5.33c-24.366,6.475-50,11.559-69.359,29.45-9.546,9.479-16.88,20.83-20.218,33.248-1.669.2-2.884-.231-5.216,1-20.961,8.878-42.123,19.092-60.08,34.446a15.568,15.568,0,0,0,3.521-.778c10.681,23.5,21.379,47.373,37.133,68.735-16.355,9.079-33.979,15.221-52.336,19.493a100.452,100.452,0,0,1-24.25,1.233l.218-.565c3-4.939,7.343-9.546,11.015-13.951-.935.066-1.936,1.067-2.87,1.6a60.655,60.655,0,0,0-9.746,12.684,35.862,35.862,0,0,1-8.678-1.268c2.47-3.672,6.342-6.876,9.613-9.613C94.684,392.334,97.337,389.853,97.337,389.853Z" transform="translate(-3.102 -29.874)" fill="#eb85b5"/>
    <path id="Path_142" data-name="Path 142" d="M495.963,222.024c2.2.935,4.277.555,6.876.6l-2.4,1.8c-6.309,3-12.95,7.544-20.36,4.94-4.406-2.173-3.338-8.411-2.537-13.151a23.342,23.342,0,0,1,7.877-12.016C485.883,211.009,489.221,218.819,495.963,222.024Z" transform="translate(-136.18 -31.254)" fill="#f8d7e7"/>
    <path id="Path_143" data-name="Path 143" d="M537.815,214.6a12.356,12.356,0,0,1-5.073,8.478A33.15,33.15,0,0,1,520.375,225,32.216,32.216,0,0,0,526,217.6c.547-1.142.846-1.561,1.412-2.7A26.029,26.029,0,0,0,537.815,214.6Z" transform="translate(-150.661 -34.712)" fill="#f8d7e7"/>
    <path id="Path_144" data-name="Path 144" d="M351.057,234.141A224.214,224.214,0,0,1,303.928,256.1l-.682.18a82.88,82.88,0,0,0-12.937,4.76c5.438-.55,10.347-2.4,15.888-3.338-9.947,10.814-16.389,28.637-31.676,33.243l-.366-.065c-5.475-.533-10.682-1.535-16.356-1.6,6.142-23.765,29.373-41.922,51.268-50A239.549,239.549,0,0,1,346.117,228.2,31.159,31.159,0,0,1,351.057,234.141Z" transform="translate(-63.369 -39.233)" fill="#f8d7e7"/>
    <path id="Path_145" data-name="Path 145" d="M146.773,240.821a6.6,6.6,0,0,0-.8,4.473,21.636,21.636,0,0,0,8.812,8.011c-8.545,1.335-18.358-.2-24.7-6.742a4.523,4.523,0,0,1-.8-4.339c.746-2.218,1.968-4,4.005-4.139C138.1,237.755,142.233,240.087,146.773,240.821Z" transform="translate(-20.566 -42.509)" fill="#eb85b5"/>
    <path id="Path_146" data-name="Path 146" d="M191.473,295.242l-8.678,5.942c-6.208-1.069-13.151.6-19.693,1.6-16.889,4.005-36.115,15.087-41.522,33.044-3.138,9.413-3,20.627,4.339,28.5,5.407,6.276,13.017,9.88,20.494,11.482h.534c1.4,2.2,2.336,4.74,3.471,6.943a39.035,39.035,0,0,1-33.311-17.624c-6.676-11.081-4.206-26.7,1.6-37.316,11.749-18.624,31.509-28.971,51.735-31.909C177.654,295.176,184.063,294.508,191.473,295.242Z" transform="translate(-15.266 -61.415)" fill="#eb85b5"/>
    <path id="Path_147" data-name="Path 147" d="M366.536,337.076c-6.208,22.7-11.748,46.261-11.682,69.826.467,1.535-.267,4.206,1,5.274,1-2.8.334-5.541,1.6-8.145,17.155-4.94,38.918-5.073,54.739,3.2a69.13,69.13,0,0,1,19.559,14.286l-7.209,2.2a45.952,45.952,0,0,0-12.016-13.618l-.134.2c3.4,4.473,7.343,9.079,9.947,14.085-3.471,1.068-7.076,1.669-10.614,2.537a41.092,41.092,0,0,0-11.015-15.22l-.2.2c3.338,4.873,6.875,9.746,9.012,15.22a181.916,181.916,0,0,1-42.657.467c-9.746-.668-19.359-3.538-28.371-5.607.781-2.5,1.8-5.274,2.4-8.011a572.293,572.293,0,0,0,13.151-71.161c1.469.133,3.137,1.135,4.673,1-4.005-3.738-9.68-5.474-14.419-8.478A226.251,226.251,0,0,0,289.5,317.383c.867-.39,1.135-.4,1.469-.8A34.106,34.106,0,0,0,304.587,305.5C323.946,316.915,344.573,329.8,366.536,337.076Z" transform="translate(-73.908 -64.931)" fill="#eb85b5"/>
    <path id="Path_148" data-name="Path 148" d="M643.261,408.232c6.4.966,16.388-2.818,21.576-5.74a19.3,19.3,0,0,0-.525,2.375c-.2,2.75,1.571,5.986,4.575,6.682a47.538,47.538,0,0,0,26.082-3.133c-4.985.975-10.515,2.158-15.909,2.158-3.619-.209-8.4.765-11.335-2.158-2.415-3.206-.409-8,.82-11.2-5.6,4.8-11.356,7.394-18.172,9.388C648.716,407.085,643.261,408.232,643.261,408.232Z" transform="translate(-191.514 -95.42)"/>
    <path id="Path_149" data-name="Path 149" d="M663.542,448.784c-2.723-1.23-8.639-1.433-11.544-1.3-1.029-3.432-.929-6.987-1.11-10.874,0,0,5.341-1.186,7.436-3.561a21.219,21.219,0,0,0-.041-5.5c-1.875-1.555-5.182-2.115-7.724-1.934-4.314.306-8.365,1.335-11.452,4.444-.3,2.461.662,4.469,1.509,6.283a19.818,19.818,0,0,0,7.806.923l2.547,10.244c-5.77.584-7.518,3.78-7.518,3.78,5.135-2.11,11.149-2.644,16.414-2.709C661.2,448.653,663.542,448.784,663.542,448.784Z" transform="translate(-190.115 -104.852)"/>
    <path id="Path_150" data-name="Path 150" d="M260.059,428.746c4.74,1.936,11.549,2.07,14.286,7.21a3.567,3.567,0,0,1-.348,3.107c-.734,1.135-2.69,1-3.791.365a104.5,104.5,0,0,0-13.748-5.646,145.478,145.478,0,0,0-15.624-4.567c-12.55-2.67-26.133-4.862-38.687-5-2.8-.031-5.1.1-7.873.1l-.9.2c-.868-2-1.774-3.868-2.477-5.712A238.092,238.092,0,0,1,260.059,428.746Z" transform="translate(-41.129 -102.597)" fill="#eb85b5"/>
    <path id="Path_151" data-name="Path 151" d="M642.587,437.009l-.575-1.758c4.848,1.537,11.38.262,15.736-2.375l-.164,1.672s-1.6,1.978-6.82,2.858A16.5,16.5,0,0,1,642.587,437.009Z" transform="translate(-191.099 -107.276)" fill="#fff"/>
    <g id="Group_15" data-name="Group 15" transform="translate(417.519 228.613)">
      <path id="Path_152" data-name="Path 152" d="M596.375,333.306c7.235-2.509,17.467-6.675,24.539-8.694l1.182,4.61,5.1-.366a20.713,20.713,0,0,1,2.055,3.3c-1.122,1.12-2.74,2.182-3.574,3.5l5.8,8.12,1.186.312c7.641.732,15.744-4.811,17.633-10.7a21.877,21.877,0,0,0-2.885-9.513l-3.392.316-.756-1.991a46.336,46.336,0,0,0,3.881-4.89,62.942,62.942,0,0,0-14.692-21.815c-2.969-2.567-6.2-6.111-9.916-7.7-1.014-.538-2.758.031-2.572,1.421,1.385,3.317,2.911,6.684,4.269,9.8-4.2-2.32-8.919-4.267-14.089-3.646a1.152,1.152,0,0,0-.672,2.043c2.859,4.266,5.94,9.116,7.394,13.973-7.159,3.381-17.7,7.592-24.875,10.626C595.837,326.2,596.375,333.306,596.375,333.306Z" transform="translate(-591.987 -287.59)"/>
      <path id="Path_153" data-name="Path 153" d="M638.032,294.411l-1.7-3.976.556-.047c2.969,3.578,4.57,8.011,6.161,12.38l-3-2.215A30.462,30.462,0,0,0,638.032,294.411Z" transform="translate(-606.73 -288.52)" fill="#7b7b7f"/>
      <path id="Path_154" data-name="Path 154" d="M639.534,304.862c-.683-3.614-2.734-7.326-4.372-10.921,8.527,6.879,14.261,16.4,18.459,25.679a47.649,47.649,0,0,1-10.627,8.688c-3.625-11.033-9.836-21.25-19.77-28.075l-.105.216c7.6,8.484,14.176,16.307,17.982,28.314a55.066,55.066,0,0,0-7.742.021c-2.324-11.043-6.332-21.246-12.834-29.606,2.677-.626,6.008.613,8.782,1.726,2.975,1.085,5.624,3.291,8.412,5.008Z" transform="translate(-601.475 -289.701)" fill="#8a898c"/>
      <path id="Path_155" data-name="Path 155" d="M596.648,344.475l24.1-9.024s-1.836-6.668-2.593-8.342l-24.5,9.491C595.6,339.055,596.648,344.475,596.648,344.475Z" transform="translate(-592.542 -300.728)" fill="#fc983e"/>
      <path id="Path_156" data-name="Path 156" d="M651.07,351.726a13.651,13.651,0,0,0,10.993-5.381,24.452,24.452,0,0,0-1.951-4.933l-7.732,5.435-3.713.066Z" transform="translate(-610.83 -305.483)" fill="#7b7b7f"/>
      <path id="Path_157" data-name="Path 157" d="M665.483,347.243c.578,1.808,1.88,3.92-.109,6.019a19.19,19.19,0,0,1-12.626,7.34c-3.129.531-4.434-3.45-5.941-5.673l1.619-1.5c-.124,1.095,1.165,2.044,2.219,2a16.222,16.222,0,0,0,12.838-6.762c.547-.949.015-2.23-.439-3.112C664.554,344.8,664.946,345.855,665.483,347.243Z" transform="translate(-610.212 -306.776)" fill="#7b7b7f"/>
      <path id="Path_158" data-name="Path 158" d="M655.71,319.944c1.523,2.827,1.578,5.754.122,6.539s-3.87-.87-5.395-3.7-1.577-5.753-.121-6.538S654.186,317.119,655.71,319.944Z" transform="translate(-611.027 -297.053)"/>
      <path id="Path_159" data-name="Path 159" d="M655.437,321.119c1.1,2.035,1.217,4.1.268,4.611s-2.6-.725-3.7-2.762-1.218-4.1-.271-4.609S654.338,319.083,655.437,321.119Z" transform="translate(-611.637 -297.781)" fill="#7b7b7f"/>
    </g>
    <path id="Path_160" data-name="Path 160" d="M657.481,429.238c.167,1.1-3.192,2.751-7.484,3.5s-7.894.307-8.061-.789,3.11-2.727,7.4-3.476S657.314,428.143,657.481,429.238Z" transform="translate(-191.072 -105.687)" fill="#fff"/>
    <path id="Path_161" data-name="Path 161" d="M713.38,417.668s-15.261,3.044-16.209,10.049a6.97,6.97,0,0,0,4.455,7.051c11.937,5.108,18.815,3.237,18.815,3.237s-16.209-1.546-20.379-7.583C696.2,424.834,713.38,417.668,713.38,417.668Z" transform="translate(-209.423 -102.221)"/>
    <path id="Path_162" data-name="Path 162" d="M722.95,452.181s-14.5-5.048-19.2,1.03a7.891,7.891,0,0,0-.188,8.921c7.173,10.972,13.987,12.778,13.987,12.778s-12.742-9.843-12.878-17.665C704.542,450.007,722.95,452.181,722.95,452.181Z" transform="translate(-211.13 -113.041)"/>
    <path id="Path_163" data-name="Path 163" d="M700.859,485.72s-6.806-11.234-20.826-12.6c-5.707-.557-9.348.553-11.244,3.357-5.377,7.953-2.158,13.714-2.158,13.714s-.46-11.775,8.771-14.491C684.429,473.042,700.859,485.72,700.859,485.72Z" transform="translate(-198.966 -120.608)"/>
    <path id="Path_164" data-name="Path 164" d="M627.2,415.7c-7,2.389-19.308,1.073-25.955-.522a17.549,17.549,0,0,1,1.218,2.142,5.968,5.968,0,0,1-3.432,7.417,65.04,65.04,0,0,1-30.376,3c5.9-.215,12.482-.355,18.593-1.591,4.045-1.029,9.717-1.2,12.278-4.655,1.9-3.609-1.636-7.722-3.871-10.491,7.607,3.294,14.81,4.443,23.057,4.781C620.723,415.862,627.2,415.7,627.2,415.7Z" transform="translate(-166.713 -100.003)"/>
    <path id="Path_165" data-name="Path 165" d="M578.8,439.547s18.091-.6,21,5.859c.782,1.734.721,5.3-3.2,7.742-12.186,7.6-20.47,7.4-20.47,7.4s17.961-5.19,21.1-11.9C600.146,442.437,578.8,439.547,578.8,439.547Z" transform="translate(-169.199 -109.489)"/>
    <path id="Path_166" data-name="Path 166" d="M576.1,473.642s15.109-8.138,22.027-3.421a6.967,6.967,0,0,1,2.555,8.459c-5.248,12.1-12.5,15.384-12.5,15.384s11.856-12.3,9.958-19.788C596.384,467.35,576.1,473.642,576.1,473.642Z" transform="translate(-169.186 -119.203)"/>
    <path id="Path_167" data-name="Path 167" d="M603.156,500.77s4.763-12.266,20.292-16.786c6.32-1.839,10.738-1.615,13.621.622,8.18,6.346,6.043,12.574,6.043,12.574s-2.569-11.326-13.742-11.8C618.445,484.921,603.156,500.77,603.156,500.77Z" transform="translate(-178.182 -123.857)"/>
    <path id="Path_168" data-name="Path 168" d="M608.42,229.344c16.855-5.193,36.31-2.082,36.31-2.082C625.959,218.854,608.42,229.344,608.42,229.344Z" transform="translate(-179.932 -37.836)"/>
    <path id="Path_169" data-name="Path 169" d="M615.327,250.272c17.155-4.133,36.328.194,36.328.194C633.527,240.889,615.327,250.272,615.327,250.272Z" transform="translate(-182.228 -45.203)"/>
    <path id="Path_170" data-name="Path 170" d="M604.549,166.2C626.337,195.383,642,230.975,642,230.975,632.517,195.5,604.549,166.2,604.549,166.2Z" transform="translate(-178.645 -18.62)"/>
    <path id="Path_171" data-name="Path 171" d="M599.957,183.864c20.822,29.9,35.316,65.987,35.316,65.987C626.953,214.088,599.957,183.864,599.957,183.864Z" transform="translate(-177.118 -24.494)"/>
    <path id="Path_172" data-name="Path 172" d="M497.944,122.872l5.168-.931,1.67,11.151-4.642.755Z" transform="translate(-143.204 -3.908)"/>
    <path id="Path_173" data-name="Path 173" d="M466.278,152.547c-1.443,1.907-1.727,4.154-.63,5.019s3.154.017,4.6-1.89,1.727-4.153.631-5.017S467.721,150.639,466.278,152.547Z" transform="translate(-132.245 -13.342)"/>
    <path id="Path_174" data-name="Path 174" d="M470.171,153.645c-.549.724-.611,1.615-.142,1.985s1.3.085,1.845-.639.613-1.615.143-1.987S470.721,152.919,470.171,153.645Z" transform="translate(-133.819 -14.18)" fill="#fff"/>
    <path id="Path_175" data-name="Path 175" d="M492.673,157.356c.893-1.809.855-3.753-.148-4.343s-2.491.347-3.431,2.2c-.092.182-.429,1.166-.429,1.166l3.69,1.62Z" transform="translate(-140.12 -14.179)"/>
    <path id="Path_176" data-name="Path 176" d="M492.141,155.861c-.359.677-.3,1.443.119,1.711s1.056-.065,1.415-.741.3-1.443-.12-1.71S492.5,155.184,492.141,155.861Z" transform="translate(-141.196 -14.907)" fill="#fff"/>
    <path id="Path_177" data-name="Path 177" d="M473.53,115.594l-1.789-5.177-13.229,5.057,1.7,4.6Z" transform="translate(-130.095 -0.077)"/>
    <g id="Group_16" data-name="Group 16" transform="translate(376.436 185.191)">
      <path id="Path_178" data-name="Path 178" d="M534.814,222.543l-.54.708c11.613,6.943,33.82,24.758,33.82,24.758A159.358,159.358,0,0,0,534.814,222.543Z" transform="translate(-531.718 -222.543)"/>
      <path id="Path_179" data-name="Path 179" d="M531.1,226.1l-.659.6c10.24,8.835,29.021,30.179,29.021,30.179A158.849,158.849,0,0,0,531.1,226.1Z" transform="translate(-530.445 -223.724)"/>
    </g>
    <g id="Group_17" data-name="Group 17" transform="translate(314.104 173.864)">
      <path id="Path_180" data-name="Path 180" d="M481.517,207.88l-.092,1.053c-14.1-2.208-44.354-2.25-44.354-2.25A151.1,151.1,0,0,1,481.517,207.88Z" transform="translate(-437.071 -205.576)"/>
      <path id="Path_181" data-name="Path 181" d="M481.8,215.01l.08,1.044c-14.4.551-44.525,6.307-44.525,6.307A156.868,156.868,0,0,1,481.8,215.01Z" transform="translate(-437.166 -208.712)"/>
    </g>
    <path id="Path_182" data-name="Path 182" d="M418.226,126.048a9.381,9.381,0,0,1-.687,5.1c-1.172-.142-2.182-1.323-2.788-2.6a3.021,3.021,0,0,1,.485-2.977A1.7,1.7,0,0,1,418.226,126.048Z" transform="translate(-115.478 -4.887)" fill="#f8d7e7"/>
  </g>
</svg>
